# xmcd
# Copyright (C) 1995-1998 Ti Kan
#
# Track frame offsets:
#       150
#       13934
#       32665
#       51005
#       63353
#       78364
#       94285
#       111787
#       129726
#       143196
#       158035
#       178783
#
# Disc length: 2643 seconds
#
# Revision: 2
# Processed by: cddbd v1.5.1PL2 Copyright (c) Steve Scherf et al.
# Submitted via: CD-Transfer v1.0
#
DISCID=a00a510c
DTITLE=Balcony Airplay - Solarplexus
DYEAR=2006
DGENRE=
TTITLE0=Nobody
TTITLE1=Your Angels
TTITLE2=Cruel
TTITLE3=Flying Shoes
TTITLE4=Must Have Been You
TTITLE5=Carry On
TTITLE6=Runaway Train
TTITLE7=Live
TTITLE8=Good Morning
TTITLE9=Everything Is Changing
TTITLE10=Lemon Shiny Day
TTITLE11=Slip Away
EXTD=
EXTT0=
EXTT1=
EXTT2=
EXTT3=
EXTT4=
EXTT5=
EXTT6=
EXTT7=
EXTT8=
EXTT9=
EXTT10=
EXTT11=
PLAYORDER=
